# xmcd
#
# Track frame offsets:
#	150
#	9615
#	27963
#	38417
#	54564
#	79007
#	92006
#	110855
#	129203
#	146728
#	158571
#	170720
#	185231
#	197944
#	214015
#	230164
#	242861
#	259810
#	268895
#	302066
#	315631
#	336030
#	347806
#
# Disc length: 4871 seconds
#
# Revision: 1
# Processed by: cddbd v1.5.2PL0 Copyright (c) Steve Scherf et al.
# Submitted via: EasyCDDAExtractor 12.0.1.1
#
DISCID=55130517
DTITLE=Steve Earle - Collection 2
DYEAR=2004
DGENRE=Country Rock
TTITLE0=American Boy
TTITLE1=Ashes To Ashes
TTITLE2=Another Town
TTITLE3=Close Your Eyes
TTITLE4=Back to the Wall
TTITLE5=Dixieland
TTITLE6=Even When I'm Blue
TTITLE7=Fearless Heart
TTITLE8=Good Ol' Boy (Getting' Tough)
TTITLE9=Hard Core Troubadour
TTITLE10=Hopeless Romantics
TTITLE11=I Can Wait
TTITLE12=I Won't Be Your Next In Line
TTITLE13=N.Y.C.
TTITLE14=Poison Lovers
TTITLE15=Shadowland
TTITLE16=Someday
TTITLE17=The Kind
TTITLE18=West Nashville Boogie
TTITLE19=I Feel Alright
TTITLE20=When I Fall.
TTITLE21=Sweet Little '66
TTITLE22=Time Has Come Today
EXTD=
EXTT0=
EXTT1=
EXTT2=
EXTT3=
EXTT4=
EXTT5=
EXTT6=
EXTT7=
EXTT8=
EXTT9=
EXTT10=
EXTT11=
EXTT12=
EXTT13=
EXTT14=
EXTT15=
EXTT16=
EXTT17=
EXTT18=
EXTT19=
EXTT20=
EXTT21=
EXTT22=
PLAYORDER=
